<?xml version="1.0" encoding="UTF-8" standalone="no"?>
<!-- Created with Inkscape (http://www.inkscape.org/) -->

<svg
   width="456"
   height="456"
   viewBox="0 0 456 456"
   version="1.1"
   id="svg1"
   xmlns="http://www.w3.org/2000/svg"
   xmlns:svg="http://www.w3.org/2000/svg">
  <defs
     id="defs1" />
  <g
     id="layer1">
    <path
       id="path25"
       style="fill:#235400;stroke-width:1.19127"
       d="M 35.207031 29.587891 L 35.207031 83.587891 L 196.57617 83.587891 L 196.57617 168.87891 L 35 168.87891 L 35 222.87891 L 196.57617 222.87891 L 196.57617 377.81445 L 40.486328 377.81445 L 40.486328 431.81445 L 254 431.81445 L 254 377.81445 L 253.85156 377.81445 L 253.85156 362.16992 L 254 362.16992 L 254 308.16992 L 253.85156 308.16992 L 253.85156 292.52539 L 254 292.52539 L 254 238.52539 L 253.85156 238.52539 L 253.85156 222.87891 L 420 222.87891 L 420 168.87891 L 253.85156 168.87891 L 253.85156 153.23438 L 254 153.23438 L 254 99.234375 L 253.85156 99.234375 L 253.85156 83.587891 L 419.79297 83.587891 L 419.79297 29.587891 L 35.207031 29.587891 z " />
  </g>
</svg>
